HIERARCHY
ROOT newVegas:Hips
{
	OFFSET 0.000000 96.479958 0.000000
	CHANNELS 6 Xposition Yposition Zposition Xrotation Yrotation Zrotation
	JOINT newVegas:Pelvis
	{
		OFFSET 0.000000 0.000000 0.000000
		CHANNELS 3 Xrotation Yrotation Zrotation
		JOINT newVegas:LeftUpLeg
		{
			OFFSET 18.735201 -5.666702 -4.541200
			CHANNELS 3 Xrotation Yrotation Zrotation
			JOINT newVegas:LeftLeg
			{
				OFFSET -0.021200 -31.938179 0.493100
				CHANNELS 3 Xrotation Yrotation Zrotation
				JOINT newVegas:LeftFoot
				{
					OFFSET 0.021200 -31.938179 -4.336299
					CHANNELS 3 Xrotation Yrotation Zrotation
					JOINT newVegas:LeftToeBase
					{
						OFFSET 0.943001 -26.722000 15.023500
						CHANNELS 3 Xrotation Yrotation Zrotation
						End Site
						{
							OFFSET 0.000000 30.670183 0.000000
						}
					}
				}
				JOINT newVegas:Left_PantLeg
				{
					OFFSET 0.663870 -9.044666 -1.108900
					CHANNELS 3 Xrotation Yrotation Zrotation
					End Site
					{
						OFFSET 1.415995 20.635357 0.000000
					}
				}
			}
		}
		JOINT newVegas:RightUpLeg
		{
			OFFSET -18.735201 -5.666702 -4.541200
			CHANNELS 3 Xrotation Yrotation Zrotation
			JOINT newVegas:RightLeg
			{
				OFFSET 0.018946 -31.938133 0.493100
				CHANNELS 3 Xrotation Yrotation Zrotation
				JOINT newVegas:RightFoot
				{
					OFFSET -0.018946 -31.938126 -4.336299
					CHANNELS 3 Xrotation Yrotation Zrotation
					JOINT newVegas:RightToeBase
					{
						OFFSET -0.943001 -26.722004 15.023500
						CHANNELS 3 Xrotation Yrotation Zrotation
						End Site
						{
							OFFSET 0.000000 30.670187 0.000000
						}
					}
				}
				JOINT newVegas:Right_PantLeg
				{
					OFFSET -0.661674 -9.044716 -1.108900
					CHANNELS 3 Xrotation Yrotation Zrotation
					End Site
					{
						OFFSET -1.415958 20.635269 0.000000
					}
				}
			}
		}
	}
	JOINT newVegas:Spine
	{
		OFFSET 0.000000 10.199997 -0.299500
		CHANNELS 3 Xrotation Yrotation Zrotation
		JOINT newVegas:Spine1
		{
			OFFSET 0.000000 11.900002 -1.516600
			CHANNELS 3 Xrotation Yrotation Zrotation
			JOINT newVegas:Spine2
			{
				OFFSET 0.000000 13.600006 -2.842500
				CHANNELS 3 Xrotation Yrotation Zrotation
				JOINT newVegas:Neck
				{
					OFFSET 0.000000 9.624100 -2.890100
					CHANNELS 3 Xrotation Yrotation Zrotation
					JOINT newVegas:Head
					{
						OFFSET 0.000000 14.068802 -1.351900
						CHANNELS 3 Xrotation Yrotation Zrotation
						JOINT newVegas:Hair_Back
						{
							OFFSET 0.000000 3.231903 -17.524799
							CHANNELS 3 Xrotation Yrotation Zrotation
							End Site
							{
								OFFSET 0.000000 19.849884 0.000000
							}
						}
						JOINT newVegas:Hair_Front
						{
							OFFSET 0.000000 31.260406 4.573800
							CHANNELS 3 Xrotation Yrotation Zrotation
							JOINT newVegas:Hair_Front1
							{
								OFFSET 0.000000 2.284103 11.993300
								CHANNELS 3 Xrotation Yrotation Zrotation
								JOINT newVegas:Hair_Front2
								{
									OFFSET 0.000000 2.284103 11.993300
									CHANNELS 3 Xrotation Yrotation Zrotation
									End Site
									{
										OFFSET 0.000000 12.208862 0.000000
									}
								}
							}
						}
						JOINT newVegas:Jowel
						{
							OFFSET 0.000000 -7.458206 6.864100
							CHANNELS 3 Xrotation Yrotation Zrotation
							End Site
							{
								OFFSET 0.000000 19.849884 0.000000
							}
						}
					}
				}
				JOINT newVegas:LeftShoulder
				{
					OFFSET 15.263000 10.923401 -0.547700
					CHANNELS 3 Xrotation Yrotation Zrotation
					JOINT newVegas:LeftArm
					{
						OFFSET 25.438599 -2.830597 -13.032500
						CHANNELS 3 Xrotation Yrotation Zrotation
						JOINT newVegas:LeftForeArm
						{
							OFFSET 29.960503 0.000000 0.000000
							CHANNELS 3 Xrotation Yrotation Zrotation
							JOINT newVegas:LeftHand
							{
								OFFSET 27.849251 0.000000 0.000000
								CHANNELS 3 Xrotation Yrotation Zrotation
								JOINT newVegas:LeftHandThumb1
								{
									OFFSET 4.487587 -3.305161 6.305391
									CHANNELS 3 Xrotation Yrotation Zrotation
									JOINT newVegas:LeftHandThumb2
									{
										OFFSET 5.480453 -3.164139 3.164143
										CHANNELS 3 Xrotation Yrotation Zrotation
										JOINT newVegas:LeftHandThumb3
										{
											OFFSET 5.159721 -2.978973 2.978967
											CHANNELS 3 Xrotation Yrotation Zrotation
											End Site
											{
												OFFSET 2.494507 5.926697 1.738678
											}
										}
									}
								}
								JOINT newVegas:LeftHandIndex1
								{
									OFFSET 18.578728 -0.527832 5.208049
									CHANNELS 3 Xrotation Yrotation Zrotation
									JOINT newVegas:LeftHandIndex2
									{
										OFFSET 3.192009 0.000000 0.000000
										CHANNELS 3 Xrotation Yrotation Zrotation
										JOINT newVegas:LeftHandIndex3
										{
											OFFSET 3.835129 0.000000 0.000000
											CHANNELS 3 Xrotation Yrotation Zrotation
											End Site
											{
												OFFSET -0.034599 3.816971 0.371180
											}
										}
									}
								}
								JOINT newVegas:LeftHandMiddle1
								{
									OFFSET 18.476105 0.000000 0.000000
									CHANNELS 3 Xrotation Yrotation Zrotation
									JOINT newVegas:LeftHandMiddle2
									{
										OFFSET 3.324875 0.000000 0.000000
										CHANNELS 3 Xrotation Yrotation Zrotation
										JOINT newVegas:LeftHandMiddle3
										{
											OFFSET 4.596550 0.000000 0.000000
											CHANNELS 3 Xrotation Yrotation Zrotation
											End Site
											{
												OFFSET 0.057701 4.578827 0.399218
											}
										}
									}
								}
								JOINT newVegas:LeftHandRing1
								{
									OFFSET 17.732719 0.121887 -4.201567
									CHANNELS 3 Xrotation Yrotation Zrotation
									JOINT newVegas:LeftHandRing2
									{
										OFFSET 2.733170 0.000000 0.000000
										CHANNELS 3 Xrotation Yrotation Zrotation
										JOINT newVegas:LeftHandRing3
										{
											OFFSET 3.178268 0.000000 0.000000
											CHANNELS 3 Xrotation Yrotation Zrotation
											End Site
											{
												OFFSET 0.119102 3.170624 0.185394
											}
										}
									}
								}
								JOINT newVegas:LeftHandPinky1
								{
									OFFSET 15.989624 -0.606689 -7.535461
									CHANNELS 3 Xrotation Yrotation Zrotation
									JOINT newVegas:LeftHandPinky2
									{
										OFFSET 2.538986 0.000000 0.000000
										CHANNELS 3 Xrotation Yrotation Zrotation
										JOINT newVegas:LeftHandPinky3
										{
											OFFSET 2.593102 0.000000 0.000000
											CHANNELS 3 Xrotation Yrotation Zrotation
											End Site
											{
												OFFSET -0.150902 2.584198 0.152708
											}
										}
									}
								}
							}
							JOINT newVegas:Left_Sleeve
							{
								OFFSET 0.267448 -0.649796 0.577675
								CHANNELS 3 Xrotation Yrotation Zrotation
								End Site
								{
									OFFSET 0.000000 15.991241 0.000000
								}
							}
							JOINT newVegas:Left_CapeC
							{
								OFFSET 15.715958 -8.608795 -6.935905
								CHANNELS 3 Xrotation Yrotation Zrotation
								JOINT newVegas:Left_CapeC1
								{
									OFFSET 0.000000 -8.688499 0.000000
									CHANNELS 3 Xrotation Yrotation Zrotation
									End Site
									{
										OFFSET 0.000000 8.688499 0.000000
									}
								}
							}
						}
						JOINT newVegas:Left_CapeB
						{
							OFFSET 26.118385 -8.608795 -7.079235
							CHANNELS 3 Xrotation Yrotation Zrotation
							JOINT newVegas:Left_CapeB1
							{
								OFFSET 0.000000 -8.688499 0.000000
								CHANNELS 3 Xrotation Yrotation Zrotation
								End Site
								{
									OFFSET 0.000000 8.688499 0.000000
								}
							}
						}
						JOINT newVegas:Left_CapeA
						{
							OFFSET 5.115639 -8.608795 -10.395809
							CHANNELS 3 Xrotation Yrotation Zrotation
							JOINT newVegas:Left_CapeA1
							{
								OFFSET 0.000000 -8.688499 0.000000
								CHANNELS 3 Xrotation Yrotation Zrotation
								End Site
								{
									OFFSET 0.000000 8.688499 0.000000
								}
							}
						}
					}
				}
				JOINT newVegas:RightShoulder
				{
					OFFSET -15.263000 10.923401 -0.547700
					CHANNELS 3 Xrotation Yrotation Zrotation
					JOINT newVegas:RightArm
					{
						OFFSET -25.438599 -2.830597 -13.032500
						CHANNELS 3 Xrotation Yrotation Zrotation
						JOINT newVegas:RightForeArm
						{
							OFFSET -29.960503 0.000000 0.000000
							CHANNELS 3 Xrotation Yrotation Zrotation
							JOINT newVegas:RightHand
							{
								OFFSET -27.849251 0.000000 0.000000
								CHANNELS 3 Xrotation Yrotation Zrotation
								JOINT newVegas:RightHandThumb1
								{
									OFFSET -4.487587 -3.305161 6.305391
									CHANNELS 3 Xrotation Yrotation Zrotation
									JOINT newVegas:RightHandThumb2
									{
										OFFSET -5.480453 -3.164139 3.164143
										CHANNELS 3 Xrotation Yrotation Zrotation
										JOINT newVegas:RightHandThumb3
										{
											OFFSET -5.159721 -2.978973 2.978967
											CHANNELS 3 Xrotation Yrotation Zrotation
											End Site
											{
												OFFSET -2.494507 5.926697 1.738678
											}
										}
									}
								}
								JOINT newVegas:RightHandIndex1
								{
									OFFSET -18.578728 -0.527832 5.208049
									CHANNELS 3 Xrotation Yrotation Zrotation
									JOINT newVegas:RightHandIndex2
									{
										OFFSET -3.192009 0.000000 0.000000
										CHANNELS 3 Xrotation Yrotation Zrotation
										JOINT newVegas:RightHandIndex3
										{
											OFFSET -3.835129 0.000000 0.000000
											CHANNELS 3 Xrotation Yrotation Zrotation
											End Site
											{
												OFFSET 0.034599 3.816971 0.371180
											}
										}
									}
								}
								JOINT newVegas:RightHandMiddle1
								{
									OFFSET -18.476105 0.000000 0.000000
									CHANNELS 3 Xrotation Yrotation Zrotation
									JOINT newVegas:RightHandMiddle2
									{
										OFFSET -3.324875 0.000000 0.000000
										CHANNELS 3 Xrotation Yrotation Zrotation
										JOINT newVegas:RightHandMiddle3
										{
											OFFSET -4.596550 0.000000 0.000000
											CHANNELS 3 Xrotation Yrotation Zrotation
											End Site
											{
												OFFSET -0.057701 4.578827 0.399218
											}
										}
									}
								}
								JOINT newVegas:RightHandRing1
								{
									OFFSET -17.732719 0.121887 -4.201567
									CHANNELS 3 Xrotation Yrotation Zrotation
									JOINT newVegas:RightHandRing2
									{
										OFFSET -2.733170 0.000000 0.000000
										CHANNELS 3 Xrotation Yrotation Zrotation
										JOINT newVegas:RightHandRing3
										{
											OFFSET -3.178268 0.000000 0.000000
											CHANNELS 3 Xrotation Yrotation Zrotation
											End Site
											{
												OFFSET -0.119102 3.170624 0.185394
											}
										}
									}
								}
								JOINT newVegas:RightHandPinky1
								{
									OFFSET -15.989624 -0.606689 -7.535461
									CHANNELS 3 Xrotation Yrotation Zrotation
									JOINT newVegas:RightHandPinky2
									{
										OFFSET -2.538986 0.000000 0.000000
										CHANNELS 3 Xrotation Yrotation Zrotation
										JOINT newVegas:RightHandPinky3
										{
											OFFSET -2.593102 0.000000 0.000000
											CHANNELS 3 Xrotation Yrotation Zrotation
											End Site
											{
												OFFSET 0.150902 2.584198 0.152708
											}
										}
									}
								}
							}
							JOINT newVegas:Right_CapeC
							{
								OFFSET -15.715958 -8.608795 -6.935905
								CHANNELS 3 Xrotation Yrotation Zrotation
								JOINT newVegas:Right_CapeC1
								{
									OFFSET 0.000000 -8.688499 0.000000
									CHANNELS 3 Xrotation Yrotation Zrotation
									End Site
									{
										OFFSET 0.000000 8.688499 0.000000
									}
								}
							}
							JOINT newVegas:Right_Sleeve
							{
								OFFSET -0.267448 -0.649994 0.577675
								CHANNELS 3 Xrotation Yrotation Zrotation
								End Site
								{
									OFFSET 0.000000 15.991302 0.000000
								}
							}
						}
						JOINT newVegas:Right_CapeA
						{
							OFFSET -5.115540 -8.608795 -10.395824
							CHANNELS 3 Xrotation Yrotation Zrotation
							JOINT newVegas:Right_CapeA1
							{
								OFFSET 0.000000 -8.688499 0.000000
								CHANNELS 3 Xrotation Yrotation Zrotation
								End Site
								{
									OFFSET 0.000000 8.688499 0.000000
								}
							}
						}
						JOINT newVegas:Right_CapeB
						{
							OFFSET -26.118187 -8.608795 -7.079266
							CHANNELS 3 Xrotation Yrotation Zrotation
							JOINT newVegas:Right_CapeB1
							{
								OFFSET 0.000000 -8.688499 0.000000
								CHANNELS 3 Xrotation Yrotation Zrotation
								End Site
								{
									OFFSET 0.000000 8.688499 0.000000
								}
							}
						}
					}
				}
				JOINT newVegas:Left_Collar
				{
					OFFSET 18.625099 8.655502 8.828100
					CHANNELS 3 Xrotation Yrotation Zrotation
					JOINT newVegas:Left_Collar1
					{
						OFFSET 14.783401 10.540405 -1.259500
						CHANNELS 3 Xrotation Yrotation Zrotation
						End Site
						{
							OFFSET 0.000000 18.199875 0.000000
						}
					}
				}
				JOINT newVegas:Collar_Back
				{
					OFFSET 0.000000 15.630707 -20.132601
					CHANNELS 3 Xrotation Yrotation Zrotation
					End Site
					{
						OFFSET 0.000000 22.523010 0.000000
					}
				}
				JOINT newVegas:Left_Peck
				{
					OFFSET 17.239599 -5.132599 25.482599
					CHANNELS 3 Xrotation Yrotation Zrotation
					End Site
					{
						OFFSET 0.000000 22.523010 0.000000
					}
				}
				JOINT newVegas:Right_Peck
				{
					OFFSET -17.239599 -5.132202 25.482599
					CHANNELS 3 Xrotation Yrotation Zrotation
					End Site
					{
						OFFSET 0.000000 22.523010 0.000000
					}
				}
				JOINT newVegas:Right_Collar
				{
					OFFSET -18.625099 8.655792 8.828100
					CHANNELS 3 Xrotation Yrotation Zrotation
					JOINT newVegas:Right_Collar1
					{
						OFFSET -14.783401 10.539993 -1.259500
						CHANNELS 3 Xrotation Yrotation Zrotation
						End Site
						{
							OFFSET 0.000000 18.199631 0.000000
						}
					}
				}
			}
		}
		JOINT newVegas:Belly
		{
			OFFSET 0.000000 -6.540398 9.014299
			CHANNELS 3 Xrotation Yrotation Zrotation
			End Site
			{
				OFFSET 0.000000 11.566666 0.000000
			}
		}
	}
	JOINT newVegas:ElvisFacialAnim_Joint
	{
		OFFSET 1.000000 -95.330101 -8.825800
		CHANNELS 3 Xrotation Yrotation Zrotation
		End Site
		{
			OFFSET 0.000000 35.315800 0.000000
		}
	}
}
MOTION
Frames: 4
Frame Time: 0.033333
1.144010 96.459007 3.459886 -3.822575 3.911751 -2.397745 -0.000000 -0.000000 0.000000 -22.550419 4.225185 14.715212 33.424292 -5.924047 -0.333727 19.466517 6.825947 -11.790996 -0.000000 -0.000001 -0.000000 -0.000001 0.000001 0.000001 -18.680941 -4.913882 5.837096 27.471991 5.771508 0.358593 21.736765 -3.861330 -4.260207 -0.000001 -0.000001 -0.000000 -0.000000 -0.000000 -0.000000 5.988792 0.193258 2.548541 -3.550191 0.586461 0.346679 -3.529466 0.741175 0.341944 0.400472 -0.041384 0.289422 0.400474 -0.041384 0.289422 -0.000000 0.000001 0.000000 0.400542 -0.041383 0.289423 0.400462 -0.041382 0.289421 0.000000 -0.000000 -0.000000 -0.000000 0.000001 0.000000 3.238141 -7.216386 -2.362672 -2.386299 17.298545 -78.297669 0.076720 -11.893676 -2.055658 -1.157247 2.633376 1.090958 10.756253 -0.276888 15.889021 -0.891404 26.406608 -5.959734 0.000001 -0.000000 -0.000003 1.187995 0.648079 -5.020567 -1.788701 1.903995 -16.719654 -0.000001 0.000000 0.000001 -1.911058 4.428863 -9.347780 -0.014843 4.070529 -23.701433 -0.000000 0.000001 -0.000003 -3.675061 10.867602 -6.834794 2.991074 3.454702 -29.218566 0.000002 -0.000002 -0.000003 -4.035564 12.929873 -17.157896 8.436455 2.588188 -31.029802 0.000001 0.000000 -0.000001 -0.000002 -0.000001 -0.000000 -0.000002 -0.000001 -0.000000 -0.000002 -0.000001 -0.000000 -0.000000 -0.000001 -0.000000 0.000000 -0.000001 -0.000000 -0.000000 -0.000001 -0.000000 0.000000 -0.000001 -0.000001 3.343515 -0.133902 4.446273 4.385046 -6.209231 76.335956 -0.435549 16.016614 0.264746 -0.403751 -6.587401 -2.083814 15.788742 -2.800676 -17.233886 -2.075464 -31.105955 7.336141 0.000001 -0.000002 -0.000001 2.370614 -3.625964 8.332564 -2.166852 -2.424694 18.528924 -0.000001 0.000000 -0.000001 -1.983618 -5.674558 13.528857 0.271155 -5.045427 26.883952 0.000000 -0.000000 0.000003 -4.968321 -10.103113 10.695047 4.017536 -4.043352 33.181974 -0.000000 0.000001 0.000001 -6.479844 -11.318871 23.223579 10.704557 -2.604916 34.787663 0.000001 0.000002 -0.000000 0.000000 0.000001 -0.000000 -0.000000 -0.000000 -0.000000 0.000000 0.000000 -0.000000 -0.000000 0.000000 0.000001 -0.000000 0.000000 0.000001 -0.000000 0.000000 0.000001 -0.000000 -0.000000 0.000001 0.000000 0.000000 0.000000 0.000000 0.000000 0.000000 0.000000 0.000000 0.000000 0.000000 0.000000 0.000000 0.000000 0.000000 0.000000 0.000000 0.000000 0.000000 0.000000 0.000000 0.000000 0.000000 0.000000 0.000000 -0.000000 -0.000000 0.000000 
1.125235 96.450340 3.458301 -3.826190 3.912704 -2.429312 -0.000000 -0.000000 -0.000000 -22.602501 4.233307 14.792159 33.495063 -5.957606 -0.349400 19.442458 6.799967 -11.782384 -0.000002 -0.000000 0.000000 0.000000 -0.000000 -0.000000 -18.674461 -4.838476 5.933170 27.454594 5.681046 0.315172 21.752061 -3.866331 -4.230404 -0.000001 0.000000 0.000000 -0.000000 -0.000001 0.000000 6.015046 0.178944 2.509765 -3.567075 0.577782 0.371898 -3.546215 0.732655 0.367731 0.419448 0.022347 0.339797 0.419486 0.022349 0.339800 0.000000 -0.000001 -0.000000 0.419551 0.022348 0.339800 0.419585 0.022328 0.339803 0.000000 -0.000000 -0.000000 0.000000 -0.000001 -0.000000 3.239222 -7.209143 -2.280153 -2.275866 17.072862 -78.326110 0.254584 -11.863660 -2.081937 -1.156985 2.614778 1.119427 10.756252 -0.276887 15.889016 -0.891404 26.406609 -5.959735 0.000002 0.000003 -0.000003 1.186390 0.649405 -5.018783 -1.788916 1.903871 -16.718980 -0.000000 -0.000001 -0.000001 -1.912090 4.426092 -9.345756 -0.015869 4.070549 -23.700565 -0.000000 0.000001 -0.000001 -3.673983 10.859313 -6.832781 2.991618 3.452371 -29.217408 0.000002 0.000001 0.000001 -4.040746 12.924755 -17.153940 8.435394 2.588050 -31.029669 0.000001 -0.000005 -0.000005 -0.000000 -0.000000 -0.000000 -0.000000 -0.000000 -0.000000 -0.000000 -0.000000 0.000000 -0.000002 -0.000001 0.000001 -0.000002 -0.000001 0.000001 -0.000002 -0.000001 0.000001 -0.000002 -0.000001 0.000000 3.346246 -0.169842 4.430225 4.254875 -6.281169 76.337725 -0.255575 15.725921 0.226839 -0.402703 -6.539726 -2.086033 15.788744 -2.800675 -17.233887 -2.075461 -31.105955 7.336130 0.000001 -0.000003 0.000001 2.361321 -3.645520 8.322209 -2.168127 -2.424655 18.526045 -0.000001 0.000001 -0.000000 -1.982412 -5.681446 13.521067 0.270917 -5.047190 26.881871 0.000000 -0.000001 -0.000001 -4.970968 -10.110725 10.687813 4.016634 -4.045937 33.180212 -0.000000 0.000003 -0.000002 -6.476250 -11.337007 23.217702 10.704686 -2.608261 34.786724 0.000000 -0.000000 0.000004 -0.000000 -0.000001 -0.000000 -0.000000 -0.000001 -0.000000 -0.000000 -0.000002 -0.000000 0.000000 0.000000 -0.000000 -0.000000 0.000000 -0.000000 0.000000 0.000000 -0.000000 -0.000000 -0.000000 -0.000000 0.000000 0.000001 0.000000 0.000000 0.000001 0.000000 0.000000 0.000001 0.000000 0.000000 0.000001 0.000000 0.000000 0.000001 0.000000 0.000000 0.000001 0.000000 0.000000 0.000001 0.000000 -0.000000 0.000000 -0.000000 -0.000000 -0.000000 -0.000000 
1.122565 96.451523 3.475283 -3.866395 3.888003 -2.449726 0.000000 0.000000 0.000000 -22.558539 4.225407 14.826005 33.542414 -5.963380 -0.350268 19.395097 6.810370 -11.797601 -0.000000 0.000002 0.000000 -0.000002 0.000000 -0.000000 -18.615455 -4.797980 5.973213 27.428752 5.663063 0.315296 21.770584 -3.876395 -4.223218 -0.000002 0.000001 -0.000000 0.000000 -0.000000 -0.000001 6.022624 0.177808 2.526884 -3.562701 0.575006 0.377101 -3.541706 0.730490 0.373129 0.439197 0.120278 0.389015 0.439202 0.120273 0.389014 -0.000000 0.000000 0.000000 0.439198 0.120275 0.389016 0.439263 0.120277 0.389015 -0.000000 -0.000000 -0.000000 -0.000000 0.000000 0.000000 3.239891 -7.208670 -2.237518 -2.150450 16.834173 -78.336526 0.472950 -11.873528 -2.097221 -1.158746 2.654098 1.088054 10.756251 -0.276885 15.889016 -0.891402 26.406604 -5.959734 0.000000 -0.000003 -0.000003 1.185585 0.656184 -5.009909 -1.789116 1.903703 -16.717475 -0.000001 0.000000 -0.000002 -1.913196 4.423354 -9.335875 -0.016898 4.070607 -23.698885 0.000000 0.000001 0.000002 -3.672974 10.853415 -6.821239 2.992274 3.449888 -29.215256 -0.000001 -0.000002 0.000002 -4.045853 12.915578 -17.140042 8.434309 2.587680 -31.025755 0.000001 -0.000003 -0.000002 -0.000000 0.000001 0.000000 -0.000000 0.000001 0.000000 0.000000 0.000001 0.000000 -0.000002 0.000001 0.000001 -0.000001 0.000001 0.000001 -0.000002 0.000001 0.000001 -0.000001 -0.000000 0.000001 3.351039 -0.197652 4.475662 4.283708 -6.175623 76.269348 -0.253722 15.640090 0.259532 -0.405639 -6.536216 -2.134921 15.788740 -2.800674 -17.233887 -2.075467 -31.105955 7.336140 0.000002 0.000000 -0.000002 2.359020 -3.671755 8.292950 -2.169355 -2.424592 18.517519 0.000000 -0.000000 -0.000001 -1.981393 -5.701408 13.497820 0.270658 -5.049078 26.875667 -0.000000 -0.000001 0.000002 -4.973881 -10.131515 10.667510 4.015810 -4.048446 33.174799 0.000000 0.000001 -0.000000 -6.473240 -11.361351 23.202899 10.704858 -2.611561 34.782933 0.000001 0.000003 -0.000002 -0.000000 -0.000001 0.000001 -0.000000 -0.000002 0.000001 -0.000000 -0.000001 0.000001 0.000000 0.000000 0.000001 0.000000 0.000000 0.000002 0.000000 0.000000 0.000001 0.000000 0.000000 0.000002 0.000000 0.000000 0.000000 0.000000 0.000000 0.000000 0.000000 0.000000 0.000000 0.000000 0.000000 0.000000 0.000000 0.000000 0.000000 0.000000 0.000000 0.000000 0.000000 0.000000 0.000000 0.000000 -0.000000 0.000000 0.000000 0.000000 0.000000 
1.123266 96.437126 3.477112 -3.745705 3.818678 -2.444549 -0.000000 0.000000 -0.000000 -22.661033 4.218996 14.789755 33.553338 -5.882264 -0.314157 19.390958 6.793038 -11.832057 0.000001 -0.000000 0.000001 -0.000001 0.000000 0.000001 -18.784648 -4.825781 5.930015 27.480887 5.740983 0.352426 21.769338 -3.882803 -4.260626 -0.000001 0.000000 0.000000 -0.000001 0.000001 -0.000001 5.871156 0.190021 2.508188 -3.561953 0.580536 0.393160 -3.541292 0.734701 0.389020 0.455161 0.223041 0.428995 0.455168 0.223039 0.428996 -0.000000 0.000000 -0.000000 0.455296 0.223040 0.428994 0.455005 0.223040 0.428994 -0.000000 0.000000 0.000000 -0.000000 0.000000 -0.000000 3.241002 -7.182145 -2.225617 -2.035528 16.521367 -78.310496 0.736074 -11.846620 -2.126918 -1.160941 2.680284 1.092644 10.756250 -0.276889 15.889018 -0.891402 26.406611 -5.959733 0.000001 0.000000 -0.000004 1.185128 0.667190 -4.995395 -1.789331 1.903508 -16.713306 -0.000002 -0.000001 0.000000 -1.914779 4.420390 -9.319633 -0.018071 4.070621 -23.694302 0.000001 -0.000000 -0.000003 -3.673831 10.843548 -6.801935 2.993012 3.447690 -29.209652 0.000002 0.000001 -0.000002 -4.050414 12.900679 -17.118063 8.433158 2.587280 -31.019468 -0.000000 -0.000004 0.000003 -0.000000 -0.000000 0.000002 -0.000000 -0.000000 0.000002 -0.000000 -0.000000 0.000002 -0.000000 0.000000 0.000001 -0.000000 0.000000 0.000001 -0.000000 0.000000 0.000001 0.000000 -0.000000 0.000001 3.356688 -0.230268 4.543734 4.326682 -6.067617 76.155400 -0.184770 15.632993 0.264793 -0.401908 -6.548474 -2.082756 15.788744 -2.800676 -17.233887 -2.075469 -31.105952 7.336140 0.000001 -0.000002 -0.000001 2.354924 -3.714940 8.245002 -2.170568 -2.424433 18.503628 -0.000000 0.000001 -0.000001 -1.980326 -5.734080 13.459660 0.270263 -5.050940 26.865588 0.000000 -0.000001 0.000006 -4.977053 -10.165585 10.634453 4.015035 -4.050899 33.165855 0.000000 0.000001 -0.000000 -6.471199 -11.401337 23.178032 10.705029 -2.614791 34.776315 -0.000001 0.000003 -0.000001 0.000000 -0.000001 -0.000000 0.000000 -0.000001 -0.000000 0.000000 -0.000001 -0.000000 -0.000000 0.000000 -0.000001 -0.000000 0.000000 -0.000000 -0.000000 0.000000 -0.000001 -0.000000 -0.000000 -0.000000 -0.000000 0.000001 0.000000 -0.000000 0.000001 0.000000 -0.000000 0.000001 0.000000 -0.000000 0.000001 0.000000 -0.000000 0.000001 0.000000 -0.000000 0.000001 0.000000 -0.000000 0.000001 0.000000 -0.000000 0.000000 -0.000000 -0.000000 0.000000 -0.000000 
